<svg width="532" height="345" viewBox="0 0 532 345" fill="none" xmlns="http://www.w3.org/2000/svg">
<g clip-path="url(#clip0_143_3080)">
<path d="M485.24 343.98L470.045 298.117C470.045 298.117 486.758 314.833 486.758 328.549L483.759 296.831C483.759 296.831 492.329 308.404 491.472 325.977C490.615 343.551 485.24 343.98 485.24 343.98Z" fill="#E6E6E6"/>
<path d="M158.941 302.219L144.111 257.459C144.111 257.459 160.423 273.773 160.423 287.16L157.495 256.204C157.495 256.204 165.86 267.499 165.023 284.65C164.187 301.801 158.941 302.219 158.941 302.219Z" fill="#E6E6E6"/>
<path d="M390.397 322.874C390.423 352.318 332.036 343.261 260.556 343.323C189.077 343.385 131.573 352.542 131.547 323.098C131.522 293.653 189.888 287.199 261.367 287.137C332.847 287.076 390.372 293.43 390.397 322.874Z" fill="#E6E6E6"/>
<path d="M532 343.306H0V344.653H532V343.306Z" fill="#3F3D56"/>
<path d="M340.302 283.11H330.957L326.51 247.058H340.302V283.11Z" fill="#A0616A"/>
<path d="M323.244 280.439H342.305V291.789H312.935V290.751C312.935 288.016 314.021 285.393 315.955 283.459C317.888 281.526 320.51 280.439 323.244 280.439V280.439Z" fill="#2F2E41"/>
<path d="M408.991 336.321H399.646L395.199 300.269H408.991V336.321Z" fill="#A0616A"/>
<path d="M391.933 333.65H410.994V345H381.624V343.962C381.624 341.227 382.71 338.604 384.643 336.67C386.577 334.737 389.199 333.65 391.933 333.65V333.65Z" fill="#2F2E41"/>
<path d="M452.095 229.217C452.742 228.433 453.208 227.517 453.462 226.533C453.716 225.55 453.751 224.523 453.565 223.524C453.379 222.525 452.977 221.58 452.386 220.753C451.795 219.927 451.03 219.241 450.145 218.742L428.441 130.309L414.563 136.281L440.379 221.788C439.64 223.331 439.493 225.091 439.964 226.734C440.436 228.378 441.494 229.792 442.939 230.708C444.383 231.623 446.113 231.977 447.8 231.702C449.488 231.428 451.016 230.543 452.095 229.217V229.217Z" fill="#A0616A"/>
<path d="M435.168 50.492C434.393 49.6821 433.45 49.0519 432.406 48.6459C431.361 48.2398 430.241 48.0677 429.123 48.1417C428.004 48.2157 426.916 48.534 425.934 49.0742C424.953 49.6144 424.101 50.3633 423.44 51.2683L389.846 55.1258L394.957 68.0859L425.508 62.3669C427.102 63.377 429.01 63.7673 430.872 63.464C432.734 63.1606 434.421 62.1846 435.611 60.7208C436.802 59.2571 437.414 57.4074 437.333 55.5221C437.251 53.6369 436.481 51.8472 435.168 50.492V50.492Z" fill="#A0616A"/>
<path d="M379.808 220.046L394.467 330.087L412.712 326.33C412.712 326.33 410.029 246.189 419.151 236.528C428.274 226.867 407.418 209.942 407.418 209.942L379.808 220.046Z" fill="#2F2E41"/>
<path d="M385.868 189.736L379.134 199.839C379.134 199.839 327.281 178.286 327.281 212.637C327.281 246.987 324.314 270.299 323.241 271.909C322.167 273.519 335.657 277.698 342.096 276.624C342.096 276.624 350.041 221.245 349.504 218.025C349.504 218.025 400.37 242.969 410.029 240.822C419.688 238.675 421.97 231.075 423.58 226.781C425.19 222.487 422.906 188.389 422.906 188.389L390.71 178.561L385.868 189.736Z" fill="#2F2E41"/>
<path d="M386.777 129.075L384.857 126.771C384.857 126.771 363.359 78.3911 371.805 65.3361C380.251 52.2811 417.104 50.3613 418.256 51.1292C419.408 51.8971 415.505 61.8675 418.192 66.4752C418.192 66.4752 389.643 72.666 387.724 73.4339C385.804 74.2019 402.516 102.581 402.516 102.581L400.597 119.86L386.777 129.075Z" fill="#CCCCCC"/>
<path d="M424.398 105.269C424.398 105.269 404.436 107.573 403.668 107.573C402.9 107.573 402.517 102.581 402.517 102.581L384.858 126.771C384.858 126.771 376.158 196.949 378.461 195.798C380.764 194.646 423.247 201.261 423.631 198.189C424.015 195.118 423.247 179.759 424.398 178.991C425.55 178.223 444.361 130.611 444.361 130.611C444.361 130.611 442.441 120.628 435.915 117.172C429.389 113.716 424.398 105.269 424.398 105.269Z" fill="#CCCCCC"/>
<path d="M438.219 124.083L444.361 130.611C444.361 130.611 453.487 205.618 448.496 207.922C443.506 210.225 433.681 209.942 433.681 209.942L424.015 174.383L438.219 124.083Z" fill="#CCCCCC"/>
<path d="M405.216 100.519C414.974 100.519 422.885 92.6062 422.885 82.8456C422.885 73.0849 414.974 65.1723 405.216 65.1723C395.457 65.1723 387.546 73.0849 387.546 82.8456C387.546 92.6062 395.457 100.519 405.216 100.519Z" fill="#A0616A"/>
<path d="M401.069 85.6033C400.83 81.9362 396.205 81.8105 392.531 81.7758C388.857 81.7411 384.465 81.8723 382.386 78.8422C381.012 76.8397 381.274 74.0597 382.409 71.9128C383.544 69.7659 385.411 68.1146 387.248 66.5261C391.99 62.4249 396.877 58.3563 402.57 55.7313C408.262 53.1063 414.934 52.0456 420.838 54.1528C428.091 56.7414 437.895 70.0662 438.742 77.7217C439.588 85.3772 436.53 93.1815 431.373 98.9022C426.217 104.623 414.415 102.315 406.988 104.35C411.504 97.9581 408.527 86.344 401.294 83.3592L401.069 85.6033Z" fill="#2F2E41"/>
<path d="M243.59 314.209C267.017 314.209 286.008 295.214 286.008 271.782C286.008 248.351 267.017 229.356 243.59 229.356C220.163 229.356 201.172 248.351 201.172 271.782C201.172 295.214 220.163 314.209 243.59 314.209Z" fill="#3699FF"/>
<path d="M215.262 226.341C209.383 226.341 203.63 224.637 198.7 221.435C193.769 218.233 189.872 213.67 187.48 208.299L120.17 56.6874C117.941 51.6653 116.762 46.2401 116.705 40.7454C116.649 35.2506 117.717 29.8024 119.843 24.7356C121.969 19.6688 125.109 15.0905 129.07 11.2821C133.03 7.47363 137.727 4.51554 142.873 2.58962C148.018 0.663697 153.503 -0.189365 158.99 0.0828763C164.477 0.355117 169.851 1.74691 174.78 4.17269C179.71 6.59848 184.092 10.007 187.656 14.1888C191.22 18.3705 193.891 23.2372 195.506 28.4896L244.246 187.052C245.641 191.591 245.953 196.394 245.156 201.075C244.359 205.756 242.476 210.184 239.657 214.005C236.838 217.826 233.163 220.932 228.926 223.075C224.69 225.217 220.01 226.336 215.262 226.341H215.262Z" fill="#3699FF"/>
</g>
<defs>
<clipPath id="clip0_143_3080">
<rect width="532" height="345" fill="white"/>
</clipPath>
</defs>
</svg>
