<svg xmlns="http://www.w3.org/2000/svg" fill="none" viewBox="0 0 54.9 49.775999999999996" style="max-height: 500px" width="54.9" height="49.775999999999996">
<g clip-path="url(#clip0_147_3207)">
<path fill="url(#paint0_linear_147_3207)" d="M53.0619 32.7237L50.8607 31.5065C50.7739 31.4613 50.6775 31.4378 50.5797 31.4378C50.4819 31.4378 50.3855 31.4613 50.2987 31.5065L48.6127 32.5832C48.523 32.6243 48.4471 32.6903 48.3939 32.7733C48.3406 32.8562 48.3122 32.9528 48.3122 33.0514C48.3122 33.15 48.3406 33.2465 48.3939 33.3295C48.4471 33.4125 48.523 33.4785 48.6127 33.5195L49.5025 34.0345L30.6757 46.1128L4.40243 29.7275L5.15163 29.2594C5.24157 29.2205 5.31718 29.1545 5.36759 29.0705C5.418 28.9865 5.44066 28.8888 5.43262 28.7912C5.43439 28.6947 5.40899 28.5996 5.3593 28.5169C5.30962 28.4341 5.23766 28.3669 5.15163 28.3231L3.46571 27.2463C3.37893 27.2012 3.28256 27.1776 3.18473 27.1776C3.0869 27.1776 2.99053 27.2012 2.90374 27.2463L0.843077 28.4167C0.637466 28.5565 0.469884 28.7452 0.355424 28.9659C0.240964 29.1865 0.183155 29.4322 0.187347 29.6807C0.186747 29.9221 0.246369 30.1598 0.360855 30.3724C0.475341 30.5849 0.641144 30.7655 0.843077 30.8979L29.9732 49.0621C30.2181 49.1324 30.4777 49.1324 30.7226 49.0621C30.9834 49.1316 31.2578 49.1316 31.5186 49.0621L53.296 35.4858C53.5087 35.3505 53.684 35.1637 53.8053 34.9428C53.9267 34.7218 53.9903 34.4738 53.9903 34.2218C53.9903 33.9697 53.9267 33.7217 53.8053 33.5008C53.684 33.2798 53.5087 33.0931 53.296 32.9578L53.0619 32.7237Z" opacity="0.3"/>
<path fill="url(#paint1_linear_147_3207)" d="M53.1087 25.3269L50.6733 23.8288C50.585 23.7642 50.4783 23.7293 50.3689 23.7293C50.2594 23.7293 50.1529 23.7642 50.0646 23.8288L48.3785 24.8588C48.2889 24.8999 48.2129 24.9658 48.1596 25.0488C48.1063 25.1318 48.078 25.2283 48.078 25.3269C48.078 25.4255 48.1063 25.5221 48.1596 25.605C48.2129 25.688 48.2889 25.754 48.3785 25.7951L49.5962 26.5909L30.6757 38.4351L4.30865 22.0031L5.43259 21.3008C5.51539 21.2531 5.58466 21.1851 5.63383 21.1032C5.683 21.0212 5.71057 20.9282 5.71372 20.8327C5.72176 20.7351 5.69896 20.6374 5.64855 20.5534C5.59814 20.4695 5.52253 20.4034 5.43259 20.3645L3.74667 19.2878C3.65169 19.2421 3.54764 19.2184 3.44225 19.2184C3.33686 19.2184 3.2328 19.2421 3.13782 19.2878L0.796172 20.7859C0.593214 20.9176 0.426422 21.098 0.310948 21.3105C0.195474 21.5231 0.13501 21.7612 0.13501 22.0031C0.13501 22.2449 0.195474 22.483 0.310948 22.6956C0.426422 22.9082 0.593214 23.0885 0.796172 23.2203L29.7858 41.4313C30.0746 41.5277 30.3869 41.5277 30.6757 41.4313C30.9571 41.425 31.2319 41.3442 31.4719 41.1972L53.2492 27.6209C53.4511 27.4885 53.6168 27.3079 53.7313 27.0953C53.8458 26.8828 53.9054 26.6451 53.9048 26.4037C53.8647 26.1748 53.772 25.9583 53.6338 25.7715C53.4956 25.5846 53.3159 25.4324 53.1087 25.3269V25.3269Z" opacity="0.6"/>
<path fill="#25D692" d="M45.8028 23.1734L44.0231 22.1903C43.9363 22.1452 43.8399 22.1216 43.7421 22.1216C43.6443 22.1216 43.5479 22.1452 43.4611 22.1903L30.6756 30.2425L4.30863 13.8104L16.2043 6.08593C16.2721 6.03746 16.3283 5.9745 16.3688 5.90163C16.4093 5.82875 16.4331 5.74779 16.4384 5.66459C16.472 5.59115 16.4895 5.51131 16.4895 5.43052C16.4895 5.34973 16.472 5.26987 16.4384 5.19643L15.127 3.93244C15.0348 3.85634 14.9188 3.8147 14.7992 3.8147C14.6795 3.8147 14.5637 3.85634 14.4715 3.93244L0.936649 12.6868C0.73163 12.816 0.563597 12.9959 0.448709 13.2092C0.333822 13.4225 0.276062 13.6618 0.281061 13.904C0.276869 14.1526 0.334535 14.3982 0.448995 14.6189C0.563455 14.8395 0.731038 15.0283 0.936649 15.168L30.0668 33.2855C30.2892 33.4331 30.5492 33.5143 30.8161 33.5195C31.0976 33.5132 31.3723 33.4325 31.6124 33.2855L46.1305 24.2502C46.2055 24.1873 46.2655 24.1083 46.306 24.0192C46.3465 23.9301 46.3666 23.8331 46.3647 23.7352C46.372 23.6596 46.3624 23.5834 46.3367 23.5119C46.311 23.4405 46.2699 23.3756 46.2162 23.3219C46.1625 23.2682 46.0975 23.227 46.026 23.2014C45.9545 23.1757 45.8784 23.1662 45.8028 23.1734V23.1734Z"/>
<path fill="#CCFF2C" d="M50.0646 16.947C49.6584 15.3159 48.6982 13.8763 47.3482 12.8741C47.114 12.8741 37.9816 7.11588 32.5958 3.88564L27.4442 0.795851H27.2101C25.9713 0.381117 24.6759 0.160045 23.3697 0.140443C22.162 0.118818 20.9638 0.358368 19.8573 0.842676C17.8828 1.8197 15.9601 2.89787 14.0967 4.07291L6.13521 9.50345C6.13521 9.50345 5.90106 9.50345 5.85423 9.50345C5.69334 9.64332 5.56418 9.8159 5.47534 10.0097C5.3865 10.2034 5.33996 10.4139 5.33899 10.627C5.33899 11.0119 5.49192 11.381 5.76419 11.6532C6.03645 11.9254 6.40575 12.0783 6.7908 12.0783C7.02061 12.1421 7.26346 12.1421 7.49327 12.0783V12.0783L15.689 6.74136C17.3684 5.68109 19.1038 4.71218 20.8876 3.83884C21.6462 3.53076 22.4572 3.3718 23.2761 3.37067C24.2013 3.37497 25.1192 3.5332 25.9924 3.83884L38.0752 11.142L45.3813 15.5426C46.1723 16.1304 46.735 16.9742 46.9736 17.9302C47.0588 18.4035 47.0445 18.8893 46.9316 19.3568C46.8187 19.8243 46.6097 20.2631 46.3179 20.6454L37.1855 26.31C37.1114 26.3632 37.0512 26.4336 37.0104 26.5152C36.9696 26.5968 36.9494 26.687 36.9513 26.7782C36.9143 26.8423 36.8948 26.9149 36.8948 26.9889C36.8948 27.0628 36.9143 27.1355 36.9513 27.1995L38.3564 28.4167C38.4768 28.4637 38.6105 28.4637 38.731 28.4167H39.0119L48.2849 22.7053C48.3932 22.7267 48.5044 22.7267 48.6126 22.7053C49.3011 21.9336 49.7927 21.0069 50.0455 20.0043C50.2982 19.0016 50.3049 17.9527 50.0646 16.947V16.947Z"/>
<path fill="url(#paint2_linear_147_3207)" d="M13.4878 4.30695L0.655597 12.64C0.494713 12.7799 0.365547 12.9525 0.276709 13.1462C0.18787 13.34 0.141474 13.5505 0.140503 13.7636C0.140503 13.9542 0.178021 14.1429 0.250982 14.319C0.323943 14.495 0.430885 14.655 0.565699 14.7898C0.700513 14.9246 0.860487 15.0315 1.03663 15.1044C1.21277 15.1773 1.40166 15.2149 1.59231 15.2149C1.82212 15.2787 2.06497 15.2787 2.29478 15.2149L15.6422 6.46043L13.4878 4.30695Z"/>
<path fill="url(#paint3_linear_147_3207)" d="M42.7585 22.7053L29.739 30.8511C29.573 30.9867 29.4405 31.1584 29.3512 31.3532C29.2619 31.5479 29.2183 31.7605 29.2239 31.9747C29.2239 32.1652 29.2614 32.3539 29.3343 32.53C29.4073 32.7061 29.5142 32.8661 29.6491 33.0008C29.7839 33.1356 29.944 33.2425 30.1201 33.3154C30.2963 33.3884 30.485 33.4259 30.6757 33.4259C30.9055 33.4898 31.1483 33.4898 31.3781 33.4259L44.7256 24.7183L42.7585 22.7053Z"/>
<path fill="#363144" d="M129.587 59.4551H127.526V54.1182H129.587C129.931 54.1243 130.271 54.1981 130.587 54.3355C130.903 54.4729 131.189 54.6712 131.428 54.919C131.667 55.1668 131.855 55.4593 131.981 55.7798C132.107 56.1002 132.169 56.4423 132.163 56.7866C132.163 57.4784 131.895 58.1433 131.414 58.6412C130.934 59.139 130.279 59.4308 129.587 59.4551V59.4551ZM130.805 58.1911C130.986 58.0057 131.13 57.7861 131.226 57.545C131.323 57.304 131.37 57.0462 131.367 56.7866C131.374 56.5195 131.328 56.2537 131.232 56.0045C131.135 55.7554 130.99 55.5279 130.805 55.3354C130.657 55.1526 130.472 55.0037 130.262 54.8987C130.052 54.7937 129.822 54.7351 129.587 54.7267H128.276V58.7997H129.587C129.822 58.7914 130.052 58.7327 130.262 58.6277C130.472 58.5227 130.657 58.3738 130.805 58.1911V58.1911Z"/>
<path fill="#363144" d="M133.942 59.4551H133.146V54.1182H133.942V59.4551Z"/>
<path fill="#363144" d="M140.405 56.4589V59.4551H139.609V58.7528C139.22 59.1285 138.73 59.3819 138.198 59.4815C137.667 59.5811 137.118 59.5226 136.619 59.3133C136.12 59.104 135.694 58.753 135.393 58.3039C135.092 57.8547 134.93 57.3272 134.926 56.7866C134.92 56.4261 134.985 56.068 135.119 55.7331C135.253 55.3983 135.452 55.0934 135.705 54.8363C135.958 54.5792 136.259 54.375 136.592 54.2356C136.925 54.0962 137.282 54.0245 137.642 54.0245C138.011 54.0189 138.377 54.091 138.716 54.2362C139.054 54.3814 139.359 54.5964 139.609 54.8672L139.094 55.3822C138.92 55.1644 138.699 54.9883 138.448 54.8669C138.196 54.7454 137.921 54.6815 137.642 54.6799C137.376 54.6856 137.113 54.7454 136.87 54.8557C136.627 54.966 136.41 55.1245 136.23 55.3215C136.05 55.5185 135.913 55.75 135.825 56.0019C135.738 56.2537 135.703 56.5207 135.722 56.7866C135.709 57.0487 135.75 57.3107 135.84 57.557C135.93 57.8034 136.069 58.0292 136.248 58.2212C136.427 58.4131 136.642 58.5674 136.882 58.6748C137.121 58.7821 137.38 58.8405 137.642 58.8465C137.889 58.8612 138.137 58.8181 138.364 58.7206C138.592 58.6231 138.794 58.4738 138.954 58.2847C139.268 57.9694 139.466 57.5568 139.515 57.1143H138.392V56.4589H140.405Z"/>
<path fill="#363144" d="M142.232 59.4551H141.436V54.1182H142.232V59.4551Z"/>
<path fill="#363144" d="M147.056 54.7267H145.416V59.4083H144.62V54.7267H143.075V54.1182H147.149L147.056 54.7267Z"/>
<path fill="#363144" d="M151.552 59.4551H150.662L150.147 58.0506H148.039L147.524 59.4551H146.681L148.882 54.1182H149.35L151.552 59.4551ZM149.912 57.3952L149.116 55.2885L148.32 57.3952H149.912Z"/>
<path fill="#363144" d="M155.532 58.7997V59.4551H152.067V54.1182H152.816V58.7997H155.532Z"/>
<path fill="#363144" d="M157.125 59.4551H156.329V54.1182H157.125V59.4551Z"/>
<path fill="#363144" d="M162.511 54.914L159.42 58.7997H162.511V59.4551H158.623V58.6124L161.668 54.7267H158.623V54.1182H162.511V54.914Z"/>
<path fill="#363144" d="M168.037 59.4551H167.147L166.632 58.0506H164.524L164.009 59.4551H163.166L165.321 54.1182H165.836L168.037 59.4551ZM166.398 57.3952L165.602 55.2885L164.759 57.3952H166.398Z"/>
<path fill="#363144" d="M170.425 60.8127L170.753 60.3914H170.378L170.753 60.0169C170.086 59.8986 169.486 59.5394 169.066 59.0075C168.647 58.4757 168.437 57.8084 168.478 57.1323C168.518 56.4562 168.806 55.8186 169.286 55.3406C169.766 54.8626 170.405 54.5775 171.081 54.5395C171.457 54.5302 171.831 54.6004 172.178 54.7456C172.525 54.8909 172.837 55.1078 173.095 55.3822L172.533 55.8971C172.366 55.6712 172.146 55.4892 171.894 55.3669C171.641 55.2446 171.362 55.1855 171.081 55.1949C170.582 55.2699 170.126 55.5214 169.797 55.9037C169.468 56.286 169.287 56.7737 169.287 57.2782C169.287 57.7827 169.468 58.2704 169.797 58.6527C170.126 59.035 170.582 59.2865 171.081 59.3615C171.357 59.3689 171.631 59.3138 171.882 59.2003C172.134 59.0868 172.356 58.9178 172.533 58.7061L173.095 59.221C172.839 59.481 172.532 59.6858 172.194 59.8227C171.855 59.9596 171.493 60.0257 171.128 60.0169C171.206 60.0166 171.283 60.0325 171.354 60.0636C171.426 60.0947 171.49 60.1404 171.543 60.1976C171.595 60.2548 171.636 60.3224 171.661 60.3961C171.687 60.4697 171.696 60.5478 171.69 60.6255C171.696 60.7092 171.685 60.7934 171.658 60.8728C171.63 60.9521 171.586 61.0248 171.529 61.0864C171.472 61.1479 171.402 61.197 171.325 61.2305C171.248 61.264 171.165 61.2811 171.081 61.2809C170.933 61.2961 170.785 61.2569 170.665 61.1707C170.544 61.0845 170.459 60.9572 170.425 60.8127V60.8127Z"/>
<path fill="#363144" d="M178.34 59.4551H177.45L176.935 58.0506H174.828L174.313 59.4551H173.423L175.624 54.1182H176.139L178.34 59.4551ZM176.654 57.3952L175.858 55.4758L175.062 57.5825L176.654 57.3952Z"/>
<path fill="#363144" d="M183.96 56.7867C183.951 57.3216 183.784 57.8419 183.48 58.2823C183.176 58.7226 182.748 59.0633 182.251 59.2617C181.754 59.46 181.21 59.5071 180.686 59.3971C180.162 59.2871 179.682 59.0249 179.307 58.6434C178.932 58.2619 178.678 57.778 178.577 57.2526C178.476 56.7272 178.532 56.1837 178.739 55.6903C178.946 55.1968 179.294 54.7755 179.74 54.4791C180.185 54.1828 180.708 54.0247 181.244 54.0246C181.606 54.018 181.966 54.0853 182.302 54.2224C182.638 54.3595 182.942 54.5635 183.196 54.8219C183.45 55.0804 183.649 55.3879 183.78 55.7257C183.912 56.0635 183.973 56.4245 183.96 56.7867V56.7867ZM179.277 56.7867C179.313 57.1562 179.456 57.5072 179.687 57.7973C179.919 58.0874 180.23 58.304 180.583 58.421C180.935 58.538 181.314 58.5503 181.673 58.4565C182.033 58.3626 182.357 58.1666 182.607 57.8921C182.857 57.6177 183.022 57.2766 183.083 56.9103C183.143 56.5439 183.095 56.168 182.946 55.8281C182.797 55.4881 182.552 55.1987 182.242 54.9949C181.931 54.7912 181.568 54.6818 181.197 54.68C180.671 54.7162 180.18 54.957 179.83 55.3509C179.48 55.7448 179.298 56.2603 179.324 56.7867H179.277Z"/>
<path fill="#363144" d="M188.924 59.4551H186.817V54.1182H188.924C189.267 54.1242 189.604 54.1983 189.918 54.3363C190.231 54.4743 190.514 54.6733 190.749 54.9218C190.985 55.1702 191.168 55.4631 191.289 55.7833C191.41 56.1035 191.466 56.4446 191.453 56.7866C191.466 57.4741 191.208 58.139 190.735 58.6381C190.262 59.1373 189.612 59.4306 188.924 59.4551V59.4551ZM190.142 58.1911C190.489 57.804 190.689 57.3064 190.704 56.7866C190.696 56.2514 190.496 55.7368 190.142 55.3354C189.985 55.1514 189.792 55.0022 189.574 54.8974C189.356 54.7926 189.119 54.7344 188.878 54.7267H187.613V58.7997H188.878C189.119 58.792 189.356 58.7339 189.574 58.6291C189.792 58.5243 189.985 58.3751 190.142 58.1911V58.1911Z"/>
<path fill="#363144" d="M196.183 58.7997V59.4551H192.484V54.1182H196.043V54.7267H193.28V56.3185H195.528V56.9739H193.28V58.7997H196.183Z"/>
<path fill="#363144" d="M201.242 58.0038H199.977V59.4551H199.274V54.1182H201.335C201.799 54.1903 202.221 54.4258 202.527 54.7821C202.832 55.1383 202.999 55.5919 202.999 56.061C202.999 56.53 202.832 56.9836 202.527 57.3399C202.221 57.6962 201.799 57.9317 201.335 58.0038H201.242ZM202.365 56.0376C202.379 55.7174 202.271 55.4038 202.062 55.1605C201.854 54.9171 201.56 54.7621 201.242 54.7267H199.977V57.3484H201.242C201.402 57.3366 201.558 57.2932 201.701 57.2208C201.844 57.1485 201.972 57.0485 202.076 56.9267C202.181 56.8048 202.26 56.6636 202.31 56.511C202.359 56.3584 202.378 56.1975 202.365 56.0376V56.0376Z"/>
<path fill="#363144" d="M206.861 57.7229L208.032 59.4551H207.142L206.112 57.8634H204.848V59.4551H203.958V54.1182H206.065C206.498 54.1203 206.917 54.2724 207.251 54.5485C207.584 54.8246 207.812 55.2077 207.895 55.6327C207.978 56.0576 207.911 56.4981 207.705 56.8792C207.5 57.2603 207.168 57.5585 206.768 57.7229H206.861ZM204.848 57.2548H206.112C206.447 57.2548 206.769 57.1216 207.006 56.8846C207.243 56.6475 207.377 56.326 207.377 55.9908C207.377 55.6555 207.243 55.334 207.006 55.097C206.769 54.8599 206.447 54.7267 206.112 54.7267H204.848V57.2548Z"/>
<path fill="#363144" d="M214.027 56.7867C214.018 57.3216 213.85 57.8419 213.546 58.2823C213.242 58.7226 212.815 59.0633 212.318 59.2617C211.821 59.46 211.276 59.5071 210.752 59.3971C210.229 59.2871 209.749 59.0249 209.374 58.6434C208.999 58.2619 208.745 57.778 208.643 57.2526C208.542 56.7272 208.599 56.1837 208.806 55.6903C209.013 55.1968 209.361 54.7755 209.806 54.4791C210.252 54.1828 210.775 54.0247 211.311 54.0246C211.673 54.018 212.033 54.0853 212.369 54.2224C212.704 54.3595 213.009 54.5635 213.263 54.8219C213.517 55.0804 213.716 55.3879 213.847 55.7257C213.978 56.0635 214.04 56.4245 214.027 56.7867V56.7867ZM209.343 56.7867C209.38 57.1562 209.522 57.5072 209.754 57.7973C209.986 58.0874 210.297 58.304 210.649 58.421C211.002 58.538 211.381 58.5503 211.74 58.4565C212.099 58.3626 212.424 58.1666 212.674 57.8921C212.924 57.6177 213.089 57.2766 213.149 56.9103C213.209 56.5439 213.162 56.168 213.013 55.8281C212.864 55.4881 212.619 55.1987 212.308 54.9949C211.998 54.7912 211.635 54.6818 211.264 54.68C210.738 54.7162 210.247 54.957 209.897 55.3509C209.546 55.7448 209.365 56.2603 209.39 56.7867H209.343Z"/>
<path fill="#363144" d="M219.319 58.706C219.06 58.9617 218.753 59.1637 218.415 59.3002C218.077 59.4368 217.716 59.5054 217.352 59.5019C216.993 59.5082 216.637 59.4423 216.305 59.3081C215.973 59.1739 215.671 58.9741 215.417 58.7207C215.164 58.4673 214.964 58.1655 214.829 57.8332C214.695 57.5009 214.629 57.1449 214.636 56.7866C214.629 56.4261 214.695 56.068 214.829 55.7331C214.963 55.3983 215.162 55.0934 215.414 54.8363C215.667 54.5792 215.969 54.375 216.302 54.2356C216.634 54.0962 216.991 54.0245 217.352 54.0245C217.721 54.0189 218.086 54.091 218.425 54.2362C218.764 54.3814 219.069 54.5964 219.319 54.8672L218.804 55.3822C218.637 55.1562 218.418 54.9743 218.165 54.8519C217.912 54.7296 217.633 54.6706 217.352 54.6799C216.853 54.7549 216.397 55.0065 216.068 55.3888C215.739 55.7711 215.558 56.2588 215.558 56.7632C215.558 57.2677 215.739 57.7554 216.068 58.1377C216.397 58.52 216.853 58.7715 217.352 58.8465C217.628 58.8575 217.903 58.804 218.155 58.6902C218.407 58.5765 218.629 58.4056 218.804 58.1911L219.319 58.706Z"/>
<path fill="#363144" d="M224.002 58.7997V59.4551H220.302V54.1182H223.862V54.7267H221.099V56.3185H223.347V56.9739H221.099V58.7997H224.002Z"/>
<path fill="#363144" d="M228.498 58.5188C228.317 58.8481 228.042 59.1168 227.709 59.2916C227.376 59.4663 226.999 59.5395 226.625 59.5019C226.253 59.4988 225.886 59.418 225.547 59.2648C225.209 59.1116 224.906 58.8894 224.658 58.6124L225.173 58.0975C225.338 58.3291 225.555 58.518 225.808 58.6484C226.061 58.7787 226.341 58.8466 226.625 58.8465C226.847 58.8754 227.073 58.8374 227.273 58.7373C227.473 58.6372 227.639 58.4796 227.749 58.2847C227.817 58.1037 227.817 57.904 227.749 57.723C227.749 57.3016 227.187 57.208 226.578 57.0207C225.969 56.8335 225.173 56.6462 224.892 55.944C224.755 55.5819 224.755 55.1825 224.892 54.8204C225.076 54.572 225.316 54.3704 225.593 54.2321C225.87 54.0939 226.175 54.0227 226.484 54.0246C226.864 54.0212 227.24 54.0988 227.587 54.2521C227.935 54.4055 228.245 54.6312 228.498 54.914L227.936 55.429C227.772 55.1973 227.554 55.0084 227.301 54.8781C227.049 54.7478 226.769 54.6799 226.484 54.68C226.31 54.6836 226.139 54.7278 225.984 54.809C225.83 54.8903 225.696 55.0064 225.595 55.1481C225.527 55.3453 225.527 55.5595 225.595 55.7567C225.595 56.1312 226.157 56.2249 226.719 56.4121C227.281 56.5994 228.17 56.7398 228.451 57.4889C228.589 57.8158 228.605 58.1808 228.498 58.5188V58.5188Z"/>
<path fill="#363144" d="M233.275 58.5188C233.089 58.8441 232.814 59.1094 232.482 59.2836C232.15 59.4577 231.775 59.5335 231.402 59.5019C231.029 59.5079 230.659 59.4313 230.319 59.2775C229.979 59.1237 229.677 58.8966 229.435 58.6124L229.95 58.0974C230.115 58.3291 230.332 58.518 230.585 58.6483C230.837 58.7787 231.118 58.8466 231.402 58.8465C231.624 58.8754 231.85 58.8374 232.05 58.7373C232.25 58.6372 232.416 58.4796 232.526 58.2847C232.526 58.0038 232.526 57.723 232.526 57.723C232.526 57.723 231.964 57.208 231.402 57.0207C230.84 56.8335 229.95 56.6462 229.716 55.944C229.636 55.7675 229.594 55.576 229.594 55.3822C229.594 55.1884 229.636 54.9968 229.716 54.8204C229.897 54.5691 230.137 54.3655 230.414 54.2269C230.692 54.0883 230.998 54.0189 231.308 54.0246C231.681 54.0185 232.051 54.0951 232.391 54.2489C232.732 54.4027 233.033 54.6298 233.275 54.914L232.76 55.429C232.595 55.1973 232.378 55.0084 232.125 54.8781C231.873 54.7478 231.592 54.6798 231.308 54.68C231.133 54.6798 230.96 54.7223 230.805 54.8039C230.65 54.8855 230.517 55.0036 230.418 55.1481C230.351 55.3453 230.351 55.5595 230.418 55.7567C230.418 56.1312 230.98 56.2248 231.542 56.4121C232.104 56.5994 232.994 56.7398 233.228 57.4889C233.314 57.6456 233.363 57.8199 233.371 57.9984C233.379 58.1769 233.347 58.3549 233.275 58.5188Z"/>
<path fill="#363144" d="M239.457 56.7867C239.448 57.3216 239.281 57.8419 238.977 58.2823C238.673 58.7226 238.245 59.0633 237.748 59.2617C237.251 59.46 236.707 59.5071 236.183 59.3971C235.659 59.2871 235.179 59.0249 234.804 58.6434C234.429 58.2619 234.175 57.778 234.074 57.2526C233.973 56.7272 234.029 56.1837 234.236 55.6903C234.443 55.1968 234.791 54.7755 235.237 54.4791C235.682 54.1828 236.206 54.0247 236.741 54.0246C237.103 54.018 237.463 54.0853 237.799 54.2224C238.135 54.3595 238.439 54.5635 238.693 54.8219C238.947 55.0804 239.146 55.3879 239.277 55.7257C239.409 56.0635 239.47 56.4245 239.457 56.7867ZM234.774 56.7867C234.81 57.1562 234.953 57.5072 235.185 57.7973C235.416 58.0874 235.727 58.304 236.08 58.421C236.432 58.538 236.811 58.5503 237.17 58.4565C237.53 58.3626 237.854 58.1666 238.104 57.8921C238.354 57.6177 238.52 57.2766 238.58 56.9103C238.64 56.5439 238.592 56.168 238.443 55.8281C238.294 55.4881 238.049 55.1987 237.739 54.9949C237.428 54.7912 237.065 54.6818 236.694 54.68C236.168 54.7162 235.677 54.957 235.327 55.3509C234.977 55.7448 234.795 56.2603 234.821 56.7867H234.774Z"/>
<path fill="#363144" d="M243.906 58.5188C243.72 58.8441 243.445 59.1094 243.113 59.2836C242.781 59.4577 242.407 59.5335 242.033 59.5019C241.653 59.5053 241.277 59.4277 240.93 59.2744C240.583 59.121 240.272 58.8953 240.019 58.6124L240.581 58.0974C240.743 58.332 240.96 58.5231 241.213 58.6537C241.467 58.7844 241.748 58.8506 242.033 58.8465C242.255 58.8754 242.481 58.8374 242.681 58.7373C242.881 58.6372 243.047 58.4796 243.157 58.2847C243.212 58.1014 243.212 57.9062 243.157 57.7229C243.157 57.3016 242.595 57.208 242.033 57.0207C241.471 56.8335 240.581 56.6462 240.347 55.944C240.267 55.7675 240.225 55.576 240.225 55.3822C240.225 55.1884 240.267 54.9968 240.347 54.8204C240.528 54.5691 240.768 54.3654 241.045 54.2269C241.323 54.0883 241.629 54.0189 241.939 54.0246C242.311 54.0277 242.678 54.1085 243.017 54.2616C243.356 54.4148 243.659 54.637 243.906 54.914L243.391 55.429C243.222 55.2026 243.003 55.0177 242.751 54.8879C242.5 54.7582 242.222 54.6871 241.939 54.68C241.763 54.6755 241.589 54.7162 241.434 54.7982C241.278 54.8801 241.146 55.0006 241.05 55.1481C240.982 55.3453 240.982 55.5595 241.05 55.7567C241.05 56.1312 241.612 56.2248 242.174 56.4121C242.736 56.5994 243.625 56.7398 243.859 57.4889C244.005 57.8138 244.022 58.182 243.906 58.5188V58.5188Z"/>
<path fill="#363144" d="M75.167 3.69839H64.0208V47.5641H75.8228C77.4557 47.6778 79.0949 47.4675 80.6461 46.9452C82.1974 46.423 83.6301 45.5991 84.8615 44.5211C85.7978 43.5405 86.522 42.3777 86.9893 41.1052C87.4567 39.8327 87.6569 38.4776 87.5778 37.1243V14.1381C87.6533 12.7773 87.4422 11.4158 86.9582 10.1416C86.4741 8.86746 85.7279 7.70906 84.7677 6.74137C82.0903 4.5082 78.6426 3.41544 75.167 3.69839V3.69839ZM82.192 36.7498C82.2177 37.6433 82.0367 38.5306 81.663 39.3426C81.2893 40.1546 80.7331 40.8694 80.0377 41.4313C78.7572 42.3862 77.1842 42.8661 75.5885 42.789H69.0319V8.28626H74.9797C76.7811 8.18669 78.5634 8.69807 80.0377 9.73753C80.7415 10.292 81.3037 11.0054 81.6782 11.8192C82.0527 12.633 82.2288 13.524 82.192 14.419V36.7498Z"/>
<path fill="#363144" d="M119.237 16.1044H118.815L117.504 15.6362C115.983 15.1962 114.404 14.9909 112.821 15.0276C110.052 14.8286 107.305 15.644 105.093 17.3215C104.316 18.0102 103.703 18.8635 103.298 19.8191C102.893 20.7748 102.706 21.8088 102.752 22.8457V39.9332C102.672 41.6082 103.168 43.2601 104.157 44.6147C105.281 46.0163 106.851 46.991 108.606 47.3768C109.984 47.7205 111.4 47.8935 112.821 47.8918C113.951 47.8687 115.079 47.7592 116.193 47.5641L117.317 47.2832H117.738V48.5004C117.8 49.1924 117.661 49.8875 117.337 50.5021C117.013 51.1167 116.518 51.6246 115.912 51.9647C115.413 52.2142 114.874 52.3728 114.319 52.4328C113.774 52.4876 113.225 52.4876 112.68 52.4328C111.851 52.5695 111.001 52.4808 110.218 52.1761C109.436 51.8713 108.749 51.3617 108.231 50.7007C108.019 50.3432 107.718 50.0472 107.356 49.842C106.995 49.6367 106.586 49.5293 106.17 49.5303C105.853 49.5302 105.538 49.5935 105.245 49.7164C104.953 49.8393 104.687 50.0194 104.465 50.2461C104.242 50.4728 104.067 50.7415 103.95 51.0366C103.833 51.3317 103.776 51.6472 103.782 51.9647C103.787 52.352 103.878 52.7334 104.048 53.0815C104.218 53.4296 104.463 53.7357 104.765 53.9777L105.421 54.4927C107.584 55.8645 110.124 56.5198 112.68 56.3653C119.377 56.3653 122.749 53.7905 122.749 48.6408V14.7467C121.402 14.7135 120.094 15.1996 119.096 16.1044H119.237ZM117.972 39.5119C118.034 40.16 117.924 40.8129 117.653 41.4048C117.381 41.9966 116.958 42.5064 116.427 42.8825C115.347 43.4996 114.107 43.777 112.868 43.6784C111.643 43.7733 110.419 43.4959 109.355 42.8825C108.835 42.4977 108.425 41.9851 108.162 41.3944C107.899 40.8038 107.794 40.1552 107.856 39.5119V22.9394C107.795 22.2893 107.9 21.6343 108.162 21.0363C108.425 20.4383 108.835 19.9171 109.355 19.5219C110.428 18.9316 111.645 18.6558 112.868 18.726C114.105 18.6494 115.34 18.9254 116.427 19.5219C116.962 19.9054 117.387 20.4233 117.658 21.0233C117.93 21.6233 118.038 22.2842 117.972 22.9394V39.5119Z"/>
<path fill="#363144" d="M147.758 43.5848C146.775 43.5657 145.81 43.3087 144.948 42.8358C144.425 42.4436 144.012 41.9228 143.749 41.324C143.487 40.7252 143.383 40.0687 143.449 39.4183V23.033C143.387 22.3897 143.492 21.7411 143.755 21.1505C144.017 20.5598 144.429 20.0471 144.948 19.6623C145.661 19.2438 146.464 19.0029 147.29 18.9601V18.9601C147.552 18.9602 147.812 18.9078 148.054 18.8061C148.295 18.7043 148.514 18.5553 148.698 18.3678C148.881 18.1802 149.025 17.9579 149.121 17.7139C149.217 17.4699 149.263 17.2092 149.257 16.9471C149.237 16.4429 149.038 15.9624 148.694 15.593C148.35 15.2235 147.885 14.9897 147.383 14.934H147.149C145.885 14.9593 144.635 15.1967 143.449 15.6362V9.40983V7.20952C143.449 6.53905 143.183 5.89604 142.709 5.42195C142.234 4.94786 141.591 4.68152 140.921 4.68152C140.25 4.68152 139.607 4.94786 139.132 5.42195C138.658 5.89604 138.391 6.53905 138.391 7.20952V7.20952V9.40983V39.746C138.303 41.272 138.711 42.7858 139.555 44.0603C140.4 45.3348 141.635 46.3013 143.075 46.8151C144.482 47.2772 145.949 47.5296 147.43 47.5641V47.5641C147.952 47.5641 148.452 47.3569 148.821 46.9882C149.19 46.6194 149.397 46.1193 149.397 45.5979C149.397 45.1253 149.233 44.6673 148.935 44.3008C148.636 43.9343 148.221 43.6815 147.758 43.5848Z"/>
<path fill="#363144" d="M130.289 14.9808C129.627 14.9807 128.991 15.2406 128.518 15.7047C128.045 16.1687 127.773 16.7997 127.761 17.462V45.0829C127.711 45.4405 127.74 45.8045 127.843 46.1504C127.946 46.4962 128.123 46.8159 128.36 47.088C128.598 47.36 128.89 47.578 129.219 47.7274C129.548 47.8768 129.905 47.9542 130.266 47.9542C130.627 47.9542 130.984 47.8768 131.313 47.7274C131.642 47.578 131.934 47.36 132.172 47.088C132.409 46.8159 132.586 46.4962 132.689 46.1504C132.793 45.8045 132.821 45.4405 132.772 45.0829V44.7552V17.462C132.772 16.804 132.51 16.1729 132.045 15.7076C131.579 15.2423 130.948 14.9808 130.289 14.9808V14.9808Z"/>
<path fill="#363144" d="M190.282 14.9808C189.624 14.9808 188.993 15.2423 188.527 15.7076C188.062 16.1729 187.8 16.804 187.8 17.462V45.0829C187.751 45.4405 187.779 45.8045 187.883 46.1504C187.986 46.4962 188.163 46.8159 188.4 47.088C188.637 47.36 188.93 47.578 189.259 47.7274C189.588 47.8768 189.945 47.9542 190.306 47.9542C190.667 47.9542 191.024 47.8768 191.353 47.7274C191.681 47.578 191.974 47.36 192.212 47.088C192.449 46.8159 192.625 46.4962 192.729 46.1504C192.832 45.8045 192.86 45.4405 192.811 45.0829V44.7552V17.462C192.799 16.7997 192.527 16.1687 192.054 15.7047C191.581 15.2406 190.945 14.9807 190.282 14.9808V14.9808Z"/>
<path fill="#363144" d="M180.541 2.10669C179.871 2.10669 179.227 2.37305 178.753 2.84714C178.279 3.32123 178.012 3.96424 178.012 4.63471V45.0829C178.012 45.7534 178.279 46.3964 178.753 46.8705C179.227 47.3446 179.871 47.6109 180.541 47.6109C181.212 47.6109 181.855 47.3446 182.33 46.8705C182.804 46.3964 183.07 45.7534 183.07 45.0829V44.7552V4.63471C183.07 3.96424 182.804 3.32123 182.33 2.84714C181.855 2.37305 181.212 2.10669 180.541 2.10669V2.10669Z"/>
<path fill="#363144" d="M94.8369 14.9808C94.1742 14.9807 93.5379 15.2406 93.0649 15.7047C92.592 16.1687 92.3201 16.7997 92.3079 17.462V19.7092V42.6017V44.802C92.3079 45.134 92.3733 45.4627 92.5004 45.7695C92.6275 46.0762 92.8138 46.3548 93.0486 46.5896C93.2835 46.8243 93.5622 47.0106 93.869 47.1376C94.1758 47.2646 94.5048 47.33 94.8369 47.33C95.5076 47.33 96.1509 47.0637 96.6251 46.5896C97.0994 46.1155 97.3658 45.4725 97.3658 44.802V44.4743V17.462C97.3535 16.7997 97.0817 16.1687 96.6087 15.7047C96.1357 15.2406 95.4996 14.9807 94.8369 14.9808Z"/>
<path fill="#363144" d="M170.847 17.1811C168.539 15.7305 165.869 14.9609 163.143 14.9609C160.417 14.9609 157.746 15.7305 155.439 17.1811C154.914 17.6281 154.457 18.1484 154.081 18.726C154.072 18.8351 154.072 18.9447 154.081 19.0537C153.889 19.4135 153.792 19.8164 153.8 20.2241C153.833 20.7661 154.044 21.282 154.4 21.6928C154.755 22.1035 155.235 22.3864 155.767 22.498C156.299 22.6096 156.852 22.5438 157.343 22.3106C157.833 22.0774 158.234 21.6898 158.483 21.2072C158.746 20.5523 159.225 20.0072 159.841 19.6623C160.922 19.1693 162.096 18.9141 163.283 18.9141C164.471 18.9141 165.645 19.1693 166.726 19.6623C167.265 20.0425 167.692 20.5598 167.964 21.1607C168.236 21.7616 168.342 22.4242 168.271 23.0798V24.3438L167.147 24.9992L166.772 25.2333L165.836 25.7951C164.197 26.7782 162.745 27.7145 161.527 28.5104C158.689 30.1497 156.257 32.4056 154.409 35.1113C153.758 36.452 153.437 37.9286 153.472 39.4183C153.455 40.92 153.86 42.3963 154.643 43.6785C155.693 45.0052 157.069 46.0383 158.636 46.678C160.203 47.3177 161.908 47.5423 163.588 47.33C165.806 47.414 168.01 46.9476 170.004 45.9724C171.016 46.8842 172.342 47.3705 173.704 47.33V22.7053C173.695 21.625 173.431 20.562 172.935 19.6023C172.439 18.6425 171.723 17.8131 170.847 17.1811V17.1811ZM168.177 39.4183C168.279 40.1415 168.165 40.8787 167.848 41.5369C167.531 42.1951 167.027 42.7448 166.398 43.1167C165.886 43.3665 165.328 43.5098 164.759 43.538H163.119C161.882 43.607 160.65 43.3315 159.56 42.7421C159.043 42.344 158.635 41.8222 158.374 41.225C158.112 40.6278 158.004 39.9743 158.062 39.3247C157.998 38.8669 158.031 38.4009 158.161 37.9571C158.29 37.5134 158.511 37.1019 158.811 36.7498C160.375 35.2199 162.067 33.8261 163.869 32.5833C164.478 32.162 165.18 31.647 166.07 31.132L167.147 30.4298L168.177 29.7276V39.4183Z"/>
<path fill="#363144" d="M241.424 17.1811C239.195 15.5429 236.457 14.7468 233.697 14.934C230.955 14.724 228.23 15.5048 226.016 17.1343C225.479 17.5686 225.02 18.091 224.658 18.6792C224.634 18.7871 224.634 18.899 224.658 19.0069C224.451 19.3631 224.339 19.7657 224.33 20.1773C224.395 20.7005 224.621 21.1904 224.978 21.5785C225.335 21.9666 225.804 22.2335 226.32 22.3418C226.836 22.4501 227.373 22.3945 227.856 22.1827C228.339 21.9708 228.744 21.6134 229.013 21.1604V21.1604C229.273 20.5182 229.733 19.9766 230.325 19.6155C231.384 19.0877 232.562 18.8456 233.743 18.9133C234.966 18.8431 236.183 19.119 237.256 19.7092C237.795 20.0893 238.222 20.6067 238.494 21.2076C238.766 21.8084 238.872 22.471 238.801 23.1266V24.3907L237.678 25.0461L237.303 25.2802L236.366 25.8419C234.68 26.825 233.275 27.7613 232.058 28.5572C229.209 30.1999 226.762 32.4545 224.892 35.1581C224.274 36.5082 223.97 37.9807 224.002 39.4651C223.985 40.9668 224.391 42.4431 225.173 43.7253C226.224 45.0519 227.599 46.0851 229.166 46.7248C230.733 47.3645 232.439 47.5891 234.118 47.3768C236.336 47.4608 238.541 46.9944 240.534 46.0192C241.532 46.9239 242.84 47.4101 244.187 47.3768V22.7053C244.193 21.6324 243.946 20.5732 243.465 19.6135C242.985 18.6538 242.286 17.8205 241.424 17.1811V17.1811ZM238.755 39.4183C238.856 40.1415 238.742 40.8787 238.425 41.5369C238.108 42.1951 237.604 42.7448 236.975 43.1167C236.463 43.3665 235.905 43.5098 235.336 43.538H233.697C232.459 43.6146 231.225 43.3386 230.137 42.7422C229.621 42.344 229.213 41.8222 228.951 41.225C228.689 40.6278 228.582 39.9743 228.639 39.3247C228.575 38.8669 228.609 38.4009 228.738 37.9571C228.867 37.5134 229.089 37.1019 229.388 36.7498C230.953 35.22 232.645 33.8261 234.446 32.5833C235.055 32.162 235.757 31.647 236.647 31.132L237.678 30.4298L238.755 29.7276V39.4183Z"/>
<path fill="#363144" d="M216.696 43.3039H206.159L218.757 14.6063H200.352C200.045 14.5608 199.733 14.5818 199.435 14.668C199.138 14.7541 198.863 14.9033 198.628 15.1055C198.394 15.3077 198.205 15.558 198.076 15.8394C197.947 16.1209 197.881 16.4268 197.881 16.7364C197.881 17.0459 197.947 17.3519 198.076 17.6333C198.205 17.9147 198.394 18.1651 198.628 18.3672C198.863 18.5694 199.138 18.7187 199.435 18.8048C199.733 18.891 200.045 18.912 200.352 18.8665H210.842L198.244 47.5641H216.696C216.973 47.5641 217.247 47.5096 217.503 47.4037C217.759 47.2979 217.991 47.1427 218.187 46.9471C218.382 46.7514 218.537 46.5192 218.643 46.2636C218.749 46.008 218.804 45.7341 218.804 45.4574C218.804 44.8943 218.583 44.3535 218.189 43.951C217.796 43.5484 217.26 43.3162 216.696 43.3039V43.3039Z"/>
<path fill="#363144" d="M130.289 11.8442C130.948 11.8442 131.579 11.5828 132.045 11.1174C132.51 10.6521 132.772 10.021 132.772 9.36299C132.781 8.85912 132.639 8.36399 132.365 7.94116C132.091 7.51833 131.696 7.1871 131.232 6.98998C130.768 6.79287 130.256 6.73887 129.761 6.83492C129.266 6.93096 128.811 7.17268 128.455 7.52902C128.098 7.88537 127.857 8.34008 127.76 8.83478C127.664 9.32949 127.718 9.84162 127.916 10.3054C128.113 10.7692 128.444 11.1635 128.867 11.4377C129.29 11.7119 129.785 11.8534 130.289 11.8442V11.8442Z"/>
<path fill="#363144" d="M94.8369 11.8442C95.1668 11.8504 95.4945 11.7908 95.801 11.6689C96.1076 11.547 96.3868 11.3653 96.6223 11.1342C96.8577 10.9032 97.0449 10.6276 97.1725 10.3235C97.3002 10.0193 97.3658 9.69283 97.3658 9.36302C97.2828 8.75766 96.9833 8.20282 96.5227 7.80116C96.062 7.39951 95.4714 7.17822 94.8602 7.17822C94.2489 7.17822 93.6585 7.39951 93.1978 7.80116C92.7372 8.20282 92.4377 8.75766 92.3547 9.36302C92.3547 10.0211 92.6161 10.6522 93.0816 11.1175C93.5471 11.5828 94.1786 11.8442 94.8369 11.8442V11.8442Z"/>
<path fill="#363144" d="M190.329 11.8442C190.988 11.8442 191.619 11.5828 192.085 11.1174C192.55 10.6521 192.812 10.021 192.812 9.36299C192.821 8.85912 192.679 8.36399 192.405 7.94116C192.131 7.51833 191.736 7.1871 191.272 6.98998C190.808 6.79287 190.296 6.73887 189.801 6.83492C189.306 6.93096 188.851 7.17268 188.495 7.52902C188.138 7.88537 187.896 8.34008 187.8 8.83478C187.704 9.32949 187.758 9.84162 187.955 10.3054C188.153 10.7692 188.484 11.1635 188.907 11.4377C189.33 11.7119 189.825 11.8534 190.329 11.8442V11.8442Z"/>
</g>
<defs>
<linearGradient gradientUnits="userSpaceOnUse" y2="55.1013" x2="26.7886" y1="35.9071" x1="26.8822" id="paint0_linear_147_3207">
<stop stop-color="#25D692"/>
<stop stop-color="#7AFF57" offset="0.92"/>
</linearGradient>
<linearGradient gradientUnits="userSpaceOnUse" y2="47.0959" x2="26.929" y1="19.8496" x1="26.8822" id="paint1_linear_147_3207">
<stop stop-color="#25D692"/>
<stop stop-color="#7AFF57" offset="1"/>
</linearGradient>
<linearGradient gradientUnits="userSpaceOnUse" y2="5.56641" x2="14.4217" y1="13.8572" x1="1.21766" id="paint2_linear_147_3207">
<stop stop-color="#25D692"/>
<stop stop-color="#CCFF2C" offset="1"/>
</linearGradient>
<linearGradient gradientUnits="userSpaceOnUse" y2="23.8243" x2="43.5987" y1="32.1151" x1="30.3947" id="paint3_linear_147_3207">
<stop stop-color="#25D692"/>
<stop stop-color="#CCFF2C" offset="1"/>
</linearGradient>
<clipPath id="clip0_147_3207">
<rect fill="white" height="61" width="244"/>
</clipPath>
</defs>
</svg>