<svg width="131" height="28" viewBox="0 0 131 28" fill="none" xmlns="http://www.w3.org/2000/svg">
<g clip-path="url(#clip0_57_5)">
<path d="M28.188 9.02616V28H18.4508V16.5123L6.88598 28L0 21.1612L11.5636 9.67348H0V0H19.1012C24.1205 0 28.188 4.04168 28.188 9.02616Z" fill="white"/>
<path d="M31.6909 18.9751V0H41.4281V11.4877L52.9942 0L59.8802 6.84005L48.3166 18.3278H59.8802V28.0013H40.7789C35.761 28.0013 31.6921 23.9608 31.6921 18.9751H31.6909Z" fill="white"/>
<path d="M63.3818 28V0H75.9752C84.8502 0 91.4425 5.03707 91.4425 13.9793C91.4425 22.9216 84.8502 28 76.0168 28H63.3805H63.3818ZM71.919 20.6115H75.9764C80.2444 20.6115 82.7805 17.5052 82.7805 13.9793C82.7805 10.2006 80.5835 7.38845 76.0193 7.38845H71.9202V20.6115H71.919Z" fill="white"/>
<path d="M109.532 0H94.4865V28H103.024V19.0164H109.532C116.125 19.0164 119.675 14.8182 119.675 9.61338C119.675 4.40853 116.124 0 109.532 0ZM108.432 11.9648H103.024V7.0529H108.432C109.869 7.0529 111.01 8.01824 111.01 9.52949C111.01 11.0407 109.869 11.9648 108.432 11.9648Z" fill="white"/>
<path d="M128.25 6.27662L122.463 6.26785V28.0013H131V6.27662C130.113 6.27662 129.334 6.28538 128.251 6.27662H128.25Z" fill="white"/>
<path d="M131 3.04253V0H122.463V2.91857C122.463 2.91857 124.267 2.82842 125.831 2.76457C126.909 2.72074 129.262 2.75831 131 3.04253Z" fill="white"/>
</g>
<defs>
<clipPath id="clip0_57_5">
<rect width="131" height="28" fill="white"/>
</clipPath>
</defs>
</svg>
