<svg width="170" height="315" viewBox="0 0 170 315" fill="none" xmlns="http://www.w3.org/2000/svg">
<path d="M126.887 314.176C150.314 314.176 169.305 295.181 169.305 271.749C169.305 248.317 150.314 229.322 126.887 229.322C103.46 229.322 84.4688 248.317 84.4688 271.749C84.4688 295.181 103.46 314.176 126.887 314.176Z" fill="#3699FF"/>
<path d="M98.5589 226.308C92.6801 226.308 86.9272 224.604 81.9965 221.402C77.0658 218.2 73.1687 213.637 70.7768 208.266L3.46729 56.654C1.23764 51.6319 0.0584146 46.2067 0.00211575 40.712C-0.0541831 35.2173 1.01363 29.769 3.13992 24.7023C5.2662 19.6355 8.40605 15.0571 12.3664 11.2487C16.3268 7.44025 21.0241 4.48216 26.1695 2.55623C31.315 0.630311 36.7998 -0.222751 42.287 0.04949C47.7742 0.321731 53.1477 1.71352 58.0773 4.13931C63.0069 6.56509 67.3884 9.97363 70.9526 14.1554C74.5167 18.3372 77.1881 23.2038 78.8026 28.4562L127.543 187.019C128.938 191.558 129.25 196.36 128.453 201.041C127.656 205.722 125.773 210.151 122.954 213.972C120.135 217.793 116.46 220.899 112.223 223.041C107.986 225.184 103.306 226.302 98.559 226.308H98.5589Z" fill="#3699FF"/>
</svg>
