<svg width="42" height="39" viewBox="0 0 42 39" fill="none" xmlns="http://www.w3.org/2000/svg">
<path opacity="0.3" d="M41.276 25.4117L39.5594 24.4624C39.4917 24.4272 39.4165 24.4089 39.3402 24.4089C39.2639 24.4089 39.1888 24.4272 39.1211 24.4624L37.8062 25.3022C37.7362 25.3342 37.6771 25.3856 37.6355 25.4504C37.594 25.5151 37.5719 25.5904 37.5719 25.6673C37.5719 25.7442 37.594 25.8194 37.6355 25.8842C37.6771 25.9489 37.7362 26.0003 37.8062 26.0323L38.5001 26.434L23.8177 35.8534L3.32803 23.0751L3.91231 22.71C3.98245 22.6797 4.04142 22.6282 4.08073 22.5627C4.12004 22.4972 4.13771 22.421 4.13144 22.3449C4.13282 22.2696 4.11301 22.1955 4.07426 22.1309C4.03552 22.0664 3.9794 22.014 3.91231 21.9798L2.59751 21.1401C2.52983 21.1049 2.45467 21.0865 2.37838 21.0865C2.30209 21.0865 2.22693 21.1049 2.15925 21.1401L0.552204 22.0528C0.391854 22.1618 0.261162 22.309 0.171898 22.4811C0.0826347 22.6532 0.0375514 22.8447 0.0408201 23.0386C0.0403525 23.2268 0.0868497 23.4122 0.176134 23.578C0.265418 23.7437 0.394722 23.8846 0.552204 23.9878L23.2699 38.1535C23.4608 38.2083 23.6633 38.2083 23.8543 38.1535C24.0577 38.2077 24.2717 38.2077 24.4751 38.1535L41.4585 27.5658C41.6245 27.4603 41.7611 27.3146 41.8558 27.1423C41.9504 26.97 42 26.7766 42 26.58C42 26.3834 41.9504 26.19 41.8558 26.0177C41.7611 25.8454 41.6245 25.6998 41.4585 25.5942L41.276 25.4117Z" fill="white"/>
<path opacity="0.6" d="M41.3125 19.6431L39.4132 18.4748C39.3443 18.4243 39.2611 18.3972 39.1758 18.3972C39.0904 18.3972 39.0073 18.4243 38.9385 18.4748L37.6236 19.278C37.5536 19.31 37.4944 19.3614 37.4528 19.4262C37.4113 19.4909 37.3892 19.5662 37.3892 19.6431C37.3892 19.72 37.4113 19.7953 37.4528 19.86C37.4944 19.9247 37.5536 19.9762 37.6236 20.0082L38.5732 20.6288L23.8177 29.8657L3.25489 17.0509L4.13141 16.5032C4.19598 16.466 4.25001 16.413 4.28835 16.3491C4.3267 16.2852 4.3482 16.2126 4.35066 16.1382C4.35693 16.062 4.33914 15.9859 4.29983 15.9204C4.26052 15.8549 4.20156 15.8034 4.13141 15.7731L2.81662 14.9333C2.74255 14.8977 2.6614 14.8793 2.57921 14.8793C2.49702 14.8793 2.41587 14.8977 2.3418 14.9333L0.515619 16.1016C0.357339 16.2044 0.227263 16.345 0.137209 16.5108C0.047154 16.6766 0 16.8623 0 17.0509C0 17.2395 0.047154 17.4252 0.137209 17.591C0.227263 17.7568 0.357339 17.8974 0.515619 18.0002L23.1237 32.2024C23.3489 32.2775 23.5925 32.2775 23.8177 32.2024C24.0371 32.1974 24.2514 32.1344 24.4386 32.0198L41.422 21.4321C41.5795 21.3288 41.7087 21.188 41.798 21.0222C41.8873 20.8565 41.9338 20.6711 41.9333 20.4828C41.9021 20.3043 41.8298 20.1355 41.722 19.9897C41.6142 19.844 41.474 19.7253 41.3125 19.6431Z" fill="white"/>
<path d="M35.6148 17.9638L34.2269 17.1971C34.1592 17.162 34.0841 17.1436 34.0078 17.1436C33.9315 17.1436 33.8563 17.162 33.7886 17.1971L23.8177 23.4768L3.25487 10.6619L12.5319 4.63787C12.5848 4.60007 12.6286 4.55097 12.6602 4.49414C12.6918 4.4373 12.7103 4.37416 12.7145 4.30928C12.7407 4.252 12.7544 4.18974 12.7544 4.12673C12.7544 4.06373 12.7407 4.00145 12.7145 3.94418L11.6918 2.95843C11.6198 2.89908 11.5294 2.86661 11.4361 2.86661C11.3428 2.86661 11.2525 2.89908 11.1805 2.95843L0.62517 9.78571C0.465283 9.88643 0.334238 10.0268 0.244642 10.1931C0.155045 10.3594 0.11 10.5461 0.113898 10.735C0.110629 10.9288 0.155601 11.1204 0.244865 11.2924C0.334128 11.4645 0.46482 11.6117 0.62517 11.7207L23.3428 25.8499C23.5163 25.965 23.719 26.0283 23.9272 26.0325C24.1467 26.0275 24.361 25.9646 24.5482 25.8499L35.8704 18.8036C35.9289 18.7545 35.9757 18.693 36.0073 18.6235C36.0389 18.554 36.0546 18.4783 36.0531 18.402C36.0587 18.343 36.0513 18.2836 36.0312 18.2279C36.0112 18.1721 35.9791 18.1215 35.9373 18.0796C35.8954 18.0378 35.8447 18.0057 35.7889 17.9857C35.7332 17.9656 35.6738 17.9582 35.6148 17.9638Z" fill="white"/>
<path d="M38.9385 13.108C38.6217 11.8359 37.8729 10.7132 36.82 9.93165C36.6374 9.93165 29.5154 5.44097 25.3151 2.92181L21.2975 0.512179H21.115C20.1489 0.188742 19.1387 0.0163353 18.12 0.00104821C17.1781 -0.0158166 16.2437 0.171001 15.3807 0.548697C13.8409 1.31065 12.3414 2.15148 10.8883 3.06785L4.67936 7.30296C4.67936 7.30296 4.49676 7.30296 4.46023 7.30296C4.33476 7.41203 4.23403 7.54662 4.16475 7.69772C4.09547 7.84883 4.05917 8.01296 4.05841 8.17918C4.05841 8.47935 4.17768 8.76723 4.39001 8.97948C4.60235 9.19173 4.89035 9.31098 5.19064 9.31098C5.36985 9.36078 5.55925 9.36078 5.73847 9.31098L12.1301 5.14889C13.4397 4.32202 14.7931 3.5664 16.1843 2.8853C16.7759 2.64505 17.4084 2.52108 18.047 2.5202C18.7685 2.52355 19.4844 2.64695 20.1653 2.8853L29.5883 8.58078L35.2861 12.0127C35.903 12.4711 36.3418 13.1291 36.5279 13.8747C36.5944 14.2438 36.5832 14.6227 36.4951 14.9872C36.4071 15.3518 36.2441 15.6941 36.0165 15.9922L28.8945 20.4099C28.8367 20.4513 28.7898 20.5063 28.758 20.5699C28.7261 20.6335 28.7103 20.7039 28.7118 20.775C28.683 20.8249 28.6678 20.8816 28.6678 20.9393C28.6678 20.9969 28.683 21.0536 28.7118 21.1036L29.8076 22.0528C29.9015 22.0895 30.0058 22.0895 30.0997 22.0528H30.3189L37.5506 17.5986C37.635 17.6154 37.7217 17.6154 37.8061 17.5986C38.343 16.9968 38.7264 16.2741 38.9235 15.4922C39.1207 14.7103 39.1259 13.8923 38.9385 13.108Z" fill="white"/>
<path d="M10.4134 3.25034L0.405991 9.74903C0.280522 9.85811 0.179789 9.9927 0.110507 10.1438C0.0412251 10.2949 0.00504186 10.4591 0.00428486 10.6253C0.00428486 10.7739 0.0335444 10.9211 0.0904443 11.0584C0.147344 11.1957 0.230744 11.3205 0.335882 11.4256C0.441019 11.5307 0.565777 11.614 0.703146 11.6709C0.840514 11.7278 0.98782 11.7571 1.13651 11.7571C1.31573 11.8069 1.50512 11.8069 1.68434 11.7571L12.0936 4.92977L10.4134 3.25034Z" fill="white"/>
<path d="M33.2407 17.5987L23.0872 23.9514C22.9578 24.0571 22.8544 24.1911 22.7848 24.343C22.7151 24.4948 22.6811 24.6606 22.6855 24.8276C22.6855 24.9763 22.7147 25.1234 22.7716 25.2607C22.8285 25.3981 22.9119 25.5228 23.0171 25.6279C23.1222 25.733 23.2471 25.8164 23.3844 25.8733C23.5218 25.9301 23.669 25.9594 23.8177 25.9594C23.9969 26.0092 24.1863 26.0092 24.3655 25.9594L34.7747 19.1686L33.2407 17.5987Z" fill="white"/>
</svg>
