<svg width="629" height="587" viewBox="0 0 629 587" fill="none" xmlns="http://www.w3.org/2000/svg">
<g clip-path="url(#clip0_265_293)">
<path d="M423.99 416.132H198.351C179.385 416.132 163.955 400.688 163.955 381.706V155.875C163.955 136.892 179.385 121.449 198.351 121.449H423.99C442.956 121.449 458.386 136.892 458.386 155.875V381.706C458.386 400.688 442.956 416.132 423.99 416.132ZM198.351 126.957C182.394 126.957 169.458 139.904 169.458 155.875V381.706C169.458 397.677 182.394 410.623 198.351 410.623H356.406C409.689 410.623 452.883 367.392 452.883 314.064V155.875C452.883 139.904 439.947 126.957 423.99 126.957H198.351V126.957Z" fill="#F2F2F2"/>
<path d="M222.677 150.441C211.998 150.441 203.31 159.136 203.31 169.825V200.164C203.31 210.853 211.998 219.548 222.677 219.548H252.99C263.67 219.548 272.357 210.853 272.357 200.164V169.825C272.357 159.136 263.67 150.441 252.99 150.441H222.677Z" fill="#F2F2F2"/>
<path d="M222.677 235.851C211.998 235.851 203.31 244.546 203.31 255.234V285.574C203.31 296.262 211.998 304.957 222.677 304.957H252.99C263.67 304.957 272.357 296.262 272.357 285.574V255.234C272.357 244.546 263.67 235.851 252.99 235.851H222.677Z" fill="#F2F2F2"/>
<path d="M222.677 321.26C211.998 321.26 203.31 329.955 203.31 340.643V370.983C203.31 381.671 211.998 390.366 222.677 390.366H252.99C263.67 390.366 272.357 381.671 272.357 370.983V340.643C272.357 329.955 263.67 321.26 252.99 321.26H222.677Z" fill="#F2F2F2"/>
<path d="M242.779 76.4198C229.323 76.4198 218.376 87.3759 218.376 100.844V139.072C218.376 152.54 229.323 163.496 242.779 163.496H280.975C294.431 163.496 305.378 152.54 305.378 139.072V100.844C305.378 87.3759 294.431 76.4198 280.975 76.4198H242.779Z" fill="#3699FF"/>
<path d="M368.53 183.253C355.073 183.253 344.127 194.209 344.127 207.676V245.905C344.127 259.373 355.073 270.329 368.53 270.329H406.726C420.182 270.329 431.129 259.373 431.129 245.905V207.676C431.129 194.209 420.182 183.253 406.726 183.253H368.53Z" fill="#3699FF"/>
<path d="M313.86 568.038L306.1 567.973L302.665 537.319L314.117 537.416L313.86 568.038Z" fill="#A0616A"/>
<path d="M289.005 580.388C288.988 582.299 290.527 583.873 292.444 583.89L307.872 584.019L310.573 578.54L311.565 584.047L317.386 584.1L315.916 564.458L313.891 564.323L305.63 563.753L302.965 563.574L302.918 569.132L290.525 577.545C289.582 578.186 289.014 579.248 289.005 580.388H289.005Z" fill="#2F2E41"/>
<path d="M353.339 568.038L345.58 567.973L342.145 537.319L353.597 537.416L353.339 568.038Z" fill="#A0616A"/>
<path d="M328.485 580.388C328.468 582.299 330.007 583.873 331.924 583.89L347.352 584.019L350.053 578.54L351.045 584.047L356.866 584.1L355.396 564.458L353.371 564.323L345.11 563.753L342.445 563.574L342.398 569.132L330.005 577.545C329.062 578.186 328.494 579.248 328.485 580.388Z" fill="#2F2E41"/>
<path d="M283.41 320.203L314.863 321.198L344.661 327.825C344.661 327.825 341.682 331.47 351.614 341.411C351.614 341.411 364.858 364.607 355.587 387.14L351.614 477.273C351.614 477.273 363.198 540.81 354.347 561.032L342.65 561.764L322.856 478.006L313.208 387.803L308.573 476.61C308.573 476.61 326.306 537.566 315.108 561.764L302.439 561.032L280.761 476.61C280.761 476.61 271.491 379.187 272.815 360.631C274.14 342.074 283.41 320.203 283.41 320.203H283.41Z" fill="#2F2E41"/>
<path d="M389.038 177.78C384.738 178.894 382.155 183.286 383.268 187.589C383.778 189.561 384.98 191.166 386.542 192.225L386.542 192.236L385.932 207.023L397.238 212.26L398.14 189.505L398.062 189.508C399.042 187.76 399.381 185.648 398.839 183.554C397.726 179.251 393.337 176.665 389.038 177.78V177.78Z" fill="#A0616A"/>
<path d="M325.847 230.554C323.472 228.198 322.094 225.003 322.043 221.529C321.973 216.869 324.307 212.639 328.284 210.215C332.865 207.423 338.593 207.705 342.877 210.933L378.38 237.688L384.706 199.146L398.288 203.522L395.048 253.709C394.821 257.219 392.839 260.312 389.745 261.981C386.651 263.65 382.98 263.609 379.925 261.869L328.617 232.653C327.587 232.066 326.659 231.359 325.847 230.554V230.554Z" fill="#3F3D56"/>
<path d="M271.711 156.222C273.981 160.043 272.726 164.982 268.908 167.253C267.158 168.294 265.176 168.586 263.322 168.238L263.314 168.247L253.345 179.177L241.633 174.929L256.999 158.134L257.053 158.191C257.586 156.259 258.831 154.521 260.689 153.416C264.507 151.144 269.442 152.4 271.711 156.222Z" fill="#A0616A"/>
<path d="M276.017 237.765L219.029 222.358C215.636 221.441 213 218.884 211.977 215.518C210.954 212.153 211.722 208.56 214.03 205.907L247.033 167.984L259.757 174.447L237.137 206.275L281.17 212.293C286.483 213.019 290.75 216.855 292.038 222.065C293.157 226.589 291.839 231.237 288.512 234.498C286.031 236.929 282.805 238.226 279.461 238.226C278.319 238.226 277.162 238.075 276.017 237.765H276.017Z" fill="#3F3D56"/>
<path d="M357.264 333.463L277.573 337.122C275.384 333.796 275.977 328.794 279.042 322.53C290.615 298.88 281.826 254.14 275.913 230.844C274.254 224.307 278.707 217.809 285.412 217.138L292.926 216.386L299.872 195.166H324.197L334.288 206.705L351.415 217.118C348.297 249.255 335.015 294.636 353.938 317.394C358.076 322.372 359.25 327.754 357.264 333.463Z" fill="#3F3D56"/>
<path d="M308.94 195.656C322.026 195.656 332.634 185.039 332.634 171.942C332.634 158.846 322.026 148.229 308.94 148.229C295.855 148.229 285.247 158.846 285.247 171.942C285.247 185.039 295.855 195.656 308.94 195.656Z" fill="#A0616A"/>
<path d="M335.751 156.763C339.048 144.734 303.119 134.419 296.137 144.106C295.167 142.729 291.579 141.893 289.932 142.315C288.286 142.737 286.902 143.794 285.551 144.816C283.694 146.244 281.769 147.723 280.629 149.776C279.481 151.82 279.304 154.609 280.849 156.383C282.073 157.794 284.224 165.292 286.064 165.664C287.347 165.926 288.428 166.137 289.357 166.289C290.184 165.081 292.294 163.563 292.142 162.102C293.391 162.93 292.935 164.386 292.683 165.875C291.844 170.833 272.946 209.212 283.77 197.903C284.842 198.536 286.167 199.128 287.695 199.669C290.287 195.757 292.414 191.143 293.816 186.319L293.826 186.408C294.308 190.601 297.37 194.041 301.42 195.215C317.667 199.926 330.81 193.013 335.331 180.548C333.676 177.185 332.955 177.55 333.103 177.45C335.169 176.056 338.008 176.968 338.896 179.298C339.158 179.985 339.396 180.571 339.602 181.012C341.958 172.58 344.759 173.797 335.751 156.763H335.751Z" fill="#2F2E41"/>
<path d="M324.543 148.036L322.883 139.544C322.744 138.83 322.611 138.056 322.933 137.403C323.346 136.565 324.408 136.218 325.332 136.352C326.257 136.485 326.948 137.33 327.867 137.493C331.064 138.058 335.29 134.898 336.436 142.893C336.913 146.227 342.228 146.579 344.003 149.44C345.778 152.301 345.996 156.431 343.574 158.768C341.639 160.635 338.532 160.85 336.019 159.897C333.507 158.943 331.49 157.017 329.728 154.986C327.967 152.955 326.372 150.757 324.34 148.996" fill="#2F2E41"/>
<path d="M337.017 160.952C330.534 160.046 326.115 157.686 323.882 153.938C320.961 149.033 322.918 143.632 323.002 143.404L324.373 143.914C324.355 143.964 322.579 148.908 325.146 153.202C327.143 156.542 331.205 158.662 337.219 159.503L337.017 160.952Z" fill="#4BE8BE"/>
<path d="M367.441 69.1956C348.382 69.1956 332.873 53.6739 332.873 34.5978C332.873 15.5217 348.382 0 367.441 0C386.501 0 402.01 15.5217 402.01 34.5978C402.01 53.6739 386.501 69.1956 367.441 69.1956ZM367.441 13.8391C356.004 13.8391 346.7 23.1508 346.7 34.5978C346.7 46.0448 356.004 55.3565 367.441 55.3565C378.879 55.3565 388.182 46.0448 388.182 34.5978C388.182 23.1508 378.879 13.8391 367.441 13.8391Z" fill="#3699FF"/>
<path d="M420.627 92.7079C418.933 92.7079 417.235 92.0896 415.901 90.8361L383.456 60.4042C380.668 57.7925 380.526 53.4137 383.139 50.6263C385.745 47.8287 390.12 47.6902 392.909 50.3087L425.353 80.7406C428.142 83.3523 428.284 87.7311 425.671 90.5185C424.31 91.9747 422.471 92.7079 420.627 92.7079Z" fill="#3699FF"/>
<path d="M567.263 567.261C569.614 567.409 570.913 564.486 569.134 562.782L568.957 562.078C568.981 562.022 569.004 561.965 569.028 561.909C571.405 556.236 579.461 556.275 581.818 561.957C583.91 567 586.574 572.051 587.23 577.383C587.524 579.736 587.391 582.134 586.87 584.444C591.771 573.727 594.351 562.025 594.351 550.256C594.351 547.3 594.189 544.343 593.859 541.393C593.587 538.981 593.212 536.583 592.727 534.207C590.103 521.365 584.422 509.133 576.228 498.916C572.289 496.761 569.004 493.392 567.02 489.354C566.307 487.898 565.748 486.331 565.484 484.735C565.932 484.794 567.174 477.961 566.836 477.542C567.461 476.593 568.579 476.121 569.261 475.196C572.655 470.591 577.33 471.395 579.77 477.652C584.984 480.286 585.035 484.654 581.836 488.854C579.8 491.527 579.521 495.143 577.735 498.004C577.918 498.24 578.11 498.468 578.293 498.703C581.662 503.028 584.576 507.677 587.033 512.561C586.339 507.133 587.364 500.594 589.111 496.379C591.1 491.576 594.829 487.531 598.112 483.38C602.055 478.392 610.142 480.569 610.837 486.891C610.844 486.952 610.85 487.013 610.857 487.074C610.369 487.35 609.891 487.642 609.425 487.951C606.763 489.713 607.683 493.843 610.837 494.33L610.908 494.341C610.732 496.099 610.431 497.842 609.99 499.556C614.202 515.859 605.108 521.797 592.124 522.063C591.838 522.211 591.558 522.358 591.272 522.497C592.587 526.205 593.638 530.007 594.417 533.861C595.115 537.267 595.6 540.709 595.872 544.166C596.21 548.528 596.181 552.912 595.813 557.266L595.835 557.111C596.769 552.316 599.37 547.836 603.148 544.733C608.775 540.106 616.725 538.402 622.796 534.684C625.718 532.893 629.463 535.207 628.953 538.598L628.928 538.76C628.024 539.128 627.142 539.554 626.29 540.032C625.802 540.308 625.324 540.6 624.858 540.909C622.196 542.671 623.116 546.801 626.27 547.289L626.341 547.299C626.393 547.307 626.437 547.314 626.488 547.322C624.938 551.007 622.777 554.427 620.073 557.376C617.439 571.608 606.127 572.958 594.028 568.814H594.02C592.697 574.58 590.765 580.215 588.281 585.584H567.777C567.703 585.356 567.637 585.12 567.571 584.892C569.467 585.01 571.378 584.9 573.245 584.554C571.723 582.686 570.202 580.803 568.681 578.935C568.644 578.898 568.615 578.861 568.585 578.824C567.814 577.868 567.035 576.919 566.263 575.963L566.262 575.962C566.214 573.027 566.566 570.101 567.262 567.262L567.263 567.261Z" fill="#F2F2F2"/>
<path d="M0 585.645C0 586.396 0.60308 587 1.35408 587H627.486C628.237 587 628.84 586.396 628.84 585.645C628.84 584.893 628.237 584.29 627.486 584.29H1.35408C0.60308 584.29 0 584.893 0 585.645Z" fill="#CCCCCC"/>
</g>
<defs>
<clipPath id="clip0_265_293">
<rect width="629" height="587" fill="white"/>
</clipPath>
</defs>
</svg>
